<svg width="84" height="176" viewBox="0 0 84 176" fill="none" xmlns="http://www.w3.org/2000/svg">
    <path fill-rule="evenodd" clip-rule="evenodd" d="M0 14.45v8.33L74.848 0h-27.37L0 14.45zM40.609 0 0 12.36V0h40.609zm38.724.725L0 24.871v8.331L83.992 7.638A8.003 8.003 0 0 0 79.333.725zM84 9.726 0 35.293v8.33l84-25.566v-8.33zm0 10.421L0 45.714v8.33l84-25.566v-8.33zm0 10.421L0 56.134v8.331L84 38.9v-8.33zm0 10.421L0 66.556v8.33L84 49.32v-8.33zm0 10.421L0 76.977v8.33l84-25.566v-8.33zm0 10.421L0 87.398v8.33l84-25.566v-8.33zm0 10.422L0 97.819v8.33l72.672-22.118C74.311 79.354 78.764 76 84 76v-3.747zM72.121 86.289 0 108.24v8.33l73.689-22.428A11.944 11.944 0 0 1 72 88c0-.58.041-1.152.121-1.71zm2.807 9.567L0 118.66v8.331l84-25.567V100a11.973 11.973 0 0 1-9.072-4.144zm9.072 7.66L0 129.082v8.331l84-25.567v-8.33zm0 10.421L0 139.503v8.33l84-25.566v-8.33zm0 10.421L0 149.924v8.331l84-25.567v-8.33zm0 10.421L0 160.345v8.331l84-25.567v-8.33zm0 10.421L0 170.766V176h10.174L84 153.53v-8.33zm0 10.421L17.043 176h27.371L84 163.952v-8.331zm0 10.421L51.283 176H76a8 8 0 0 0 8-8v-1.958z" fill="#F4FAFE"/>
</svg>
